<svg width="13" height="8" viewBox="0 0 13 8" fill="none" xmlns="http://www.w3.org/2000/svg">
<path d="M6.72187 2.03248C6.58251 2.01403 6.46801 2.12857 6.46801 2.26772V3.65354C6.46801 3.79269 6.35401 3.90551 6.21341 3.90551H4.81307C4.67246 3.90551 4.55672 4.01882 4.5754 4.15674C4.614 4.44144 4.71781 4.71481 4.8803 4.95546C5.09012 5.26612 5.38833 5.50837 5.73726 5.65145C6.08619 5.79441 6.47012 5.83194 6.84053 5.75898C7.21098 5.68602 7.55121 5.50603 7.81828 5.24176C8.08532 4.97749 8.26719 4.64075 8.34085 4.27424C8.41454 3.9076 8.37672 3.52768 8.2322 3.18233C8.08768 2.83698 7.84292 2.54183 7.52889 2.33428C7.28575 2.17347 7.00952 2.07074 6.72187 2.03248Z" fill="white"/>
<path fill-rule="evenodd" clip-rule="evenodd" d="M0.166504 3.74532C0.166504 3.37143 0.348912 3.02067 0.656292 2.8034L3.02921 1.12598C4.0652 0.393701 5.30653 0 6.57965 0C7.91139 0 9.20668 0.430733 10.2682 1.22662L12.3526 2.78925C12.6553 3.01624 12.8332 3.37045 12.8332 3.74631C12.8332 4.08809 12.686 4.41363 12.4285 4.64149L10.1602 6.64813C9.17616 7.5187 7.9025 8 6.5826 8C5.3165 8 4.09118 7.55709 3.12307 6.74963L0.582322 4.63029C0.318671 4.41043 0.166504 4.08649 0.166504 3.74532ZM9.52329 3.90551C9.52329 5.57542 8.1554 6.92913 6.46801 6.92913C4.78062 6.92913 3.41273 5.57542 3.41273 3.90551C3.41273 2.23561 4.78062 0.88189 6.46801 0.88189C8.1554 0.88189 9.52329 2.23561 9.52329 3.90551Z" fill="white"/>
</svg>
