<svg width="28" height="28" viewBox="0 0 28 28" fill="none" xmlns="http://www.w3.org/2000/svg">
<path d="M14.0002 2.33325C10.906 2.33325 7.93851 3.56242 5.75058 5.75034C3.56266 7.93826 2.3335 10.9057 2.3335 13.9999C2.3335 17.0941 3.56266 20.0616 5.75058 22.2495C7.93851 24.4374 10.906 25.6666 14.0002 25.6666C17.0944 25.6666 20.0618 24.4374 22.2497 22.2495C24.4377 20.0616 25.6668 17.0941 25.6668 13.9999C25.6668 10.9057 24.4377 7.93826 22.2497 5.75034C20.0618 3.56242 17.0944 2.33325 14.0002 2.33325Z" fill="#29B6F6"/>
<path d="M19.8043 8.75008L17.6192 19.9069C17.6192 19.9069 17.5252 20.4168 16.8929 20.4168C16.5569 20.4168 16.3837 20.2569 16.3837 20.2569L11.6505 16.3293L9.33466 15.1621L6.36258 14.3717C6.36258 14.3717 5.8335 14.2188 5.8335 13.7813C5.8335 13.4167 6.37775 13.2429 6.37775 13.2429L18.8121 8.30325C18.8121 8.30325 19.1918 8.16617 19.4689 8.16675C19.6392 8.16675 19.8335 8.23967 19.8335 8.45842C19.8335 8.60425 19.8043 8.75008 19.8043 8.75008Z" fill="white"/>
<path d="M13.4167 17.7946L11.4182 19.7628C11.4182 19.7628 11.3312 19.8299 11.2152 19.8328C11.1749 19.834 11.1317 19.8275 11.0874 19.8077L11.6497 16.3281L13.4167 17.7946Z" fill="#B0BEC5"/>
<path d="M17.4401 10.6143C17.3415 10.4859 17.1595 10.4626 17.0312 10.56L9.3335 15.1666C9.3335 15.1666 10.562 18.6036 10.7492 19.1986C10.9371 19.7942 11.0876 19.8082 11.0876 19.8082L11.6499 16.3286L17.3852 11.0226C17.5136 10.9252 17.5375 10.7426 17.4401 10.6143Z" fill="#CFD8DC"/>
</svg>
